<svg version="1.1" xmlns="http://www.w3.org/2000/svg" xmlns:xlink="http://www.w3.org/1999/xlink" width="20.375" height="20.375" viewBox="0,0,20.375,20.375"><g transform="translate(-229.8125,-169.8125)"><g stroke-miterlimit="10"><path d="M229.8125,180c0,-5.62641 4.56109,-10.1875 10.1875,-10.1875c5.62641,0 10.1875,4.56109 10.1875,10.1875c0,5.62641 -4.56109,10.1875 -10.1875,10.1875c-5.62641,0 -10.1875,-4.56109 -10.1875,-10.1875z" fill="none" stroke="none" stroke-width="0" stroke-linecap="butt"/><g fill="none" stroke="#ffffff" stroke-width="3"><path d="M232.4375,180c0,-4.17666 3.38584,-7.5625 7.5625,-7.5625c4.17666,0 7.5625,3.38584 7.5625,7.5625c0,4.17666 -3.38584,7.5625 -7.5625,7.5625c-4.17666,0 -7.5625,-3.38584 -7.5625,-7.5625z" stroke-linecap="butt"/><path d="M234.72052,174.57783l10.55896,10.84434" stroke-linecap="round"/></g><path d="M235.92743,185.68838c-0.00589,-0.13282 0.12309,-11.41896 0,-11.37802c-0.03884,0.01292 10.65371,5.45392 10.64533,5.72538c-0.00864,0.27986 -10.64085,5.7539 -10.64533,5.65263z" fill-opacity="0.2" fill="#ffffff" stroke-opacity="0.50196" stroke="#ffffff" stroke-width="0" stroke-linecap="round"/></g></g></svg>