<svg version="1.1" xmlns="http://www.w3.org/2000/svg" xmlns:xlink="http://www.w3.org/1999/xlink" width="343" height="343" viewBox="0,0,343,343"><g transform="translate(-68.5,-8.5)"><g data-paper-data="{&quot;isPaintingLayer&quot;:true}" fill-rule="nonzero" stroke-linejoin="miter" stroke-miterlimit="10" stroke-dasharray="" stroke-dashoffset="0" style="mix-blend-mode: normal"><path d="M72.5,351.5c-2.20914,0 -4,-1.79086 -4,-4v-335c0,-2.20914 1.79086,-4 4,-4h335c2.20914,0 4,1.79086 4,4v335c0,2.20914 -1.79086,4 -4,4z" fill-opacity="0.00784" fill="#000000" stroke="none" stroke-width="0" stroke-linecap="butt"/><path d="M339.47271,87.26625l-111.13334,111.3" fill="none" stroke="#ffffff" stroke-width="15" stroke-linecap="round"/><path d="M287.43935,87.16625h52v52" fill="none" stroke="#ffffff" stroke-width="15" stroke-linecap="round"/><path d="M302.68935,165.17031c0,0 -0.10397,46.11167 0,73.625c0.04272,11.30418 -7.38226,21.17503 -20,21.375c-13.95884,0.22123 -54.74497,-0.42701 -88.5,0c-18.71431,0.59909 -24.04795,-9.60121 -24.5,-20.375c-0.64909,-15.4699 -0.12557,-96.1076 -0.125,-96.125c0.30642,-11.52571 8.76747,-19.04805 21.25145,-19.25142c16.17713,-0.26353 74.03572,-0.07143 74.03572,-0.07143" fill="none" stroke="#ffffff" stroke-width="15" stroke-linecap="round"/></g></g></svg>