<svg version="1.1" xmlns="http://www.w3.org/2000/svg" xmlns:xlink="http://www.w3.org/1999/xlink" width="24.73096" height="24.73096" viewBox="0,0,24.73096,24.73096"><g transform="translate(-227.63459,-167.63456)"><g stroke-miterlimit="10"><path d="M230.54413,192.36553c-1.60688,0 -2.90953,-1.30263 -2.90953,-2.90953v-18.9119c0,-1.60688 1.30263,-2.90953 2.90953,-2.90953h18.9119c1.60688,0 2.90953,1.30263 2.90953,2.90953v18.9119c0,1.60688 -1.30263,2.90953 -2.90953,2.90953z" fill-opacity="0.00784" fill="#000000" stroke="#af0000" stroke-width="0" stroke-linecap="butt" stroke-linejoin="miter"/><path d="M234.37505,180.00005h11.25" fill="none" stroke="#ffffff" stroke-width="3.5" stroke-linecap="round" stroke-linejoin="miter"/><path d="M234.37505,174.37505h6.90385" fill="none" stroke="#ffffff" stroke-width="3.5" stroke-linecap="round" stroke-linejoin="miter"/><path d="M245.62505,185.62505h-11.25" fill="none" stroke="#ffffff" stroke-width="3.5" stroke-linecap="round" stroke-linejoin="miter"/><path d="M246.47266,174.10775c-0.0012,-0.03244 0.02514,-2.78817 0,-2.77818c-0.00793,0.00315 2.17666,1.33169 2.17495,1.39797c-0.00176,0.06833 -2.17404,1.40494 -2.17495,1.38021z" fill="#ffffff" stroke="#ffffff" stroke-width="4" stroke-linecap="round" stroke-linejoin="miter"/><path d="M240.96545,172.62322l2.14528,0.02632c0,0 -0.0148,0.48059 -0.00697,1.13923c0.00329,0.27637 -0.05192,1.10995 0.15675,1.65094c0.17749,0.46015 0.37653,0.68458 0.37653,0.68458h-2.85581" fill="#ffffff" stroke="#ffffff" stroke-width="0" stroke-linecap="round" stroke-linejoin="round"/></g></g></svg>